
<svg width="137px" height="89px" viewBox="0 0 137 89" version="1.1" xmlns="http://www.w3.org/2000/svg" xmlns:xlink="http://www.w3.org/1999/xlink">
    <!-- Generator: Sketch 49.2 (51160) - http://www.bohemiancoding.com/sketch -->
    <desc>Created with Sketch.</desc>
    <defs>
        <filter x="-2.2%" y="-1.2%" width="104.4%" height="107.0%" filterUnits="objectBoundingBox" id="filter-1">
            <feOffset dx="0" dy="1" in="SourceAlpha" result="shadowOffsetOuter1"></feOffset>
            <feGaussianBlur stdDeviation="0.5" in="shadowOffsetOuter1" result="shadowBlurOuter1"></feGaussianBlur>
            <feColorMatrix values="0 0 0 0 0   0 0 0 0 0   0 0 0 0 0  0 0 0 0.05 0" type="matrix" in="shadowBlurOuter1" result="shadowMatrixOuter1"></feColorMatrix>
            <feMerge>
                <feMergeNode in="shadowMatrixOuter1"></feMergeNode>
                <feMergeNode in="SourceGraphic"></feMergeNode>
            </feMerge>
        </filter>
        <path d="M72.4911972,5 L129.197183,5 C130.301753,5 131.197183,5.8954305 131.197183,7 L131.197183,22 C131.197183,23.1045695 130.301753,24 129.197183,24 L74.4759762,24 L5.41599788,24 C4.52447914,24 4.2011929,23.9071744 3.87526697,23.7328673 C3.54934105,23.5585602 3.29355247,23.3027716 3.11924538,22.9768457 C2.94493829,22.6509198 2.85211268,22.3276335 2.85211268,21.4361148 L2.85211268,2.5638852 C2.85211268,1.67236646 2.94493829,1.34908022 3.11924538,1.0231543 C3.29355247,0.697228371 3.54934105,0.441439796 3.87526697,0.267132704 C4.2011929,0.0928256111 4.52447914,6.01853049e-17 5.41599788,-1.03584031e-16 L69.2060772,3.76394305e-15 C69.9812031,-1.88604647e-15 70.2628297,0.0642052706 70.5570945,0.192562781 C70.8513593,0.320920291 71.0949868,0.513430041 71.2879097,0.770039 C71.4808327,1.02664796 71.6084197,1.28579543 71.7876556,2.03991395 L72.4911972,5 Z" id="path-2"></path>
        <path d="M7.73118504,9 L126.318111,9 C127.42268,9 128.318111,9.8954305 128.318111,11 C128.318111,11.0089263 128.318051,11.0178525 128.317931,11.026778 L127.420788,78.026778 C127.406139,79.1208061 126.515093,80 125.420967,80 L8.62832847,80 C7.5342023,80 6.64315699,79.1208061 6.62850774,78.026778 L5.73136432,11.026778 C5.71657523,9.92230751 6.59993655,9.01496835 7.70440704,9.00017927 C7.71333254,9.00005976 7.72225874,9 7.73118504,9 Z" id="path-3"></path>
        <linearGradient x1="50%" y1="0%" x2="50%" y2="100%" id="linearGradient-4">
            <stop stop-color="#D7F0FF" offset="0%"></stop>
            <stop stop-color="#C2E1F4" offset="100%"></stop>
        </linearGradient>
        <path d="M4.16390846,15 L130.780023,15 C132.989162,15 134.780023,16.790861 134.780023,19 C134.780023,19.0713505 134.778114,19.1426882 134.774298,19.2139366 L131.4591,81.109917 C131.366641,82.8361675 131.161835,83.4538837 130.801663,84.0739564 C130.44149,84.6940291 129.933499,85.17554 129.29505,85.5020328 C128.656602,85.8285255 128.028816,86 126.300091,86 L7.80577097,86 C6.06354009,86 5.43104347,85.8250451 4.78918347,85.4930856 C4.14732348,85.1611262 3.63832303,84.6721621 3.28086793,84.0441436 C2.92341284,83.4161251 2.72321167,82.7911606 2.6532816,81.0503337 L0.167131911,19.1605529 C0.0784609843,16.9531942 1.79599681,15.0918944 4.00335554,15.0032235 C4.05684622,15.0010747 4.11037464,15 4.16390846,15 Z" id="path-5"></path>
        <filter x="-1.5%" y="-1.4%" width="103.0%" height="105.6%" filterUnits="objectBoundingBox" id="filter-6">
            <feOffset dx="0" dy="1" in="SourceAlpha" result="shadowOffsetOuter1"></feOffset>
            <feGaussianBlur stdDeviation="0.5" in="shadowOffsetOuter1" result="shadowBlurOuter1"></feGaussianBlur>
            <feComposite in="shadowBlurOuter1" in2="SourceAlpha" operator="out" result="shadowBlurOuter1"></feComposite>
            <feColorMatrix values="0 0 0 0 0.592156863   0 0 0 0 0.603921569   0 0 0 0 0.607843137  0 0 0 0.1 0" type="matrix" in="shadowBlurOuter1"></feColorMatrix>
        </filter>
    </defs>
    <g id="高保真原型" stroke="none" stroke-width="1" fill="none" fill-rule="evenodd">
        <g id="项目" transform="translate(-193.000000, -338.000000)" fill-rule="nonzero">
            <g id="文件图标" transform="translate(194.000000, 337.000000)">
                <g id="文件夹" transform="translate(0.000000, 1.000000)">
                    <g filter="url(#filter-1)">
                        <g id="Combined-Shape">
                            <use fill="#B1D4E9" fill-rule="evenodd" xlink:href="#path-2"></use>
                            <path stroke="#2654B9" stroke-width="2" d="M129.197183,6 L71.7010163,6 L70.8147576,2.27114852 C70.6792869,1.70116818 70.6101275,1.53260328 70.4886074,1.37096806 C70.3993804,1.25228631 70.2933758,1.16852345 70.1572782,1.10915804 C69.9719239,1.02830703 69.7919354,1 69.2060772,1 L5.41599788,1 C4.75414596,1 4.5525934,1.03892159 4.34686583,1.1489459 C4.19520838,1.2300532 4.08216587,1.3430957 4.00105858,1.49475316 C3.89103427,1.70048072 3.85211268,1.90203328 3.85211268,2.5638852 L3.85211268,21.4361148 C3.85211268,22.0979667 3.89103427,22.2995193 4.00105858,22.5052468 C4.08216587,22.6569043 4.19520838,22.7699468 4.34686583,22.8510541 C4.5525934,22.9610784 4.75414596,23 5.41599788,23 L129.197183,23 C129.749468,23 130.197183,22.5522847 130.197183,22 L130.197183,7 C130.197183,6.44771525 129.749468,6 129.197183,6 Z"></path>
                        </g>
                        <g id="Rectangle-6">
                            <use fill="#FFFFFF" fill-rule="evenodd" xlink:href="#path-3"></use>
                            <path stroke="#2654B9" stroke-width="2" d="M7.73118504,10 C7.72449034,10.0000149 7.72449034,10.0000149 7.71779604,10.0000896 C7.1655608,10.0074842 6.72388014,10.4611538 6.73127468,11.013389 L7.6284181,78.013389 C7.63574273,78.560403 8.08126538,79 8.62832847,79 L125.420967,79 C125.96803,79 126.413553,78.560403 126.420878,78.013389 L127.318021,11.013389 C127.318096,11.0066947 127.318096,11.0066947 127.318111,11 C127.318111,10.4477153 126.870395,10 126.318111,10 L7.73118504,10 Z"></path>
                        </g>
                        <g id="Rectangle">
                            <use fill="black" fill-opacity="1" filter="url(#filter-6)" xlink:href="#path-5"></use>
                            <use fill="url(#linearGradient-4)" fill-rule="evenodd" xlink:href="#path-5"></use>
                            <path stroke="#2654B9" stroke-width="2" d="M4.16390846,16 C4.12375809,16 4.08361178,16.000806 4.04349377,16.0024176 C2.38797472,16.0689208 1.09982285,17.4648956 1.16632605,19.1204147 L3.65247574,81.0101954 C3.71042376,82.4527434 3.83453776,82.9953229 4.14995191,83.549479 C4.41176142,84.0094562 4.77845079,84.3617112 5.24856593,84.6048471 C5.8149356,84.8977642 6.36205963,85 7.80577097,85 L126.300091,85 C127.73355,85 128.276693,84.8996334 128.839746,84.6116967 C129.307314,84.3725901 129.673181,84.0257948 129.936952,83.5716853 C130.254591,83.0248379 130.383864,82.4878402 130.460531,81.0564329 L133.775729,19.1604524 C133.778592,19.1070161 133.780023,19.0535129 133.780023,19 C133.780023,17.3431458 132.436878,16 130.780023,16 L4.16390846,16 Z"></path>
                        </g>
                    </g>
                    <path d="M3.8028169,80 L130.297542,80" id="Path-92" stroke="#2654B9" stroke-width="2"></path>
                    <path d="M3.8028169,75 L130.297542,75" id="Path-92" stroke="#2654B9" stroke-width="2"></path>
                </g>
            </g>
        </g>
    </g>
</svg>