
<svg width="138px" height="89px" viewBox="0 0 138 89" version="1.1" xmlns="http://www.w3.org/2000/svg" xmlns:xlink="http://www.w3.org/1999/xlink">
    <!-- Generator: Sketch 49.2 (51160) - http://www.bohemiancoding.com/sketch -->
    <desc>Created with Sketch.</desc>
    <defs>
        <filter x="-1.5%" y="-2.3%" width="104.4%" height="105.8%" filterUnits="objectBoundingBox" id="filter-1">
            <feOffset dx="0" dy="1" in="SourceAlpha" result="shadowOffsetOuter1"></feOffset>
            <feGaussianBlur stdDeviation="0.5" in="shadowOffsetOuter1" result="shadowBlurOuter1"></feGaussianBlur>
            <feColorMatrix values="0 0 0 0 0   0 0 0 0 0   0 0 0 0 0  0 0 0 0.05 0" type="matrix" in="shadowBlurOuter1" result="shadowMatrixOuter1"></feColorMatrix>
            <feMerge>
                <feMergeNode in="shadowMatrixOuter1"></feMergeNode>
                <feMergeNode in="SourceGraphic"></feMergeNode>
            </feMerge>
        </filter>
        <path d="M117,0 L135,17 L135,82 C135,84.209139 133.209139,86 131,86 L4,86 C1.790861,86 2.705415e-16,84.209139 0,82 L0,4 C-2.705415e-16,1.790861 1.790861,4.05812251e-16 4,0 L117,0 Z" id="path-2"></path>
        <path d="M135,17 L119,17 C117.895431,17 117,16.1045695 117,15 L117,0 L135,17 Z" id="path-3"></path>
        <filter x="-19.4%" y="-14.7%" width="138.9%" height="141.2%" filterUnits="objectBoundingBox" id="filter-4">
            <feOffset dx="0" dy="1" in="SourceAlpha" result="shadowOffsetOuter1"></feOffset>
            <feGaussianBlur stdDeviation="1" in="shadowOffsetOuter1" result="shadowBlurOuter1"></feGaussianBlur>
            <feComposite in="shadowBlurOuter1" in2="SourceAlpha" operator="out" result="shadowBlurOuter1"></feComposite>
            <feColorMatrix values="0 0 0 0 0   0 0 0 0 0   0 0 0 0 0  0 0 0 0.1 0" type="matrix" in="shadowBlurOuter1"></feColorMatrix>
        </filter>
    </defs>
    <g id="Page-1" stroke="none" stroke-width="1" fill="none" fill-rule="evenodd">
        <g id="???" filter="url(#filter-1)" transform="translate(1.000000, 1.000000)">
            <g id="Combined-Shape" fill-rule="nonzero">
                <!-- <use fill="#FFFFFF" fill-rule="evenodd" xlink:href="#path-2"></use> -->
                <path stroke="#2654B9" stroke-width="2" d="M116.602421,1 L4,1 C2.34314575,1 1,2.34314575 1,4 L1,82 C1,83.6568542 2.34314575,85 4,85 L131,85 C132.656854,85 134,83.6568542 134,82 L134,17.4310465 L116.602421,1 Z"></path>
            </g>
            <g id="Combined-Shape" fill-rule="nonzero">
                <!-- <use fill="black" fill-opacity="1" filter="url(#filter-4)" xlink:href="#path-3"></use> -->
                <!-- <use fill="#2654B9" fill-rule="evenodd" xlink:href="#path-3"></use> -->
                <path stroke="#2654B9" stroke-width="2" d="M132.484774,16 L118,2.31993538 L118,15 C118,15.5522847 118.447715,16 119,16 L132.484774,16 Z"></path>
            </g>
            <g id="pdf" transform="translate(52.000000, 56.000000)" fill="#000000" font-family="PingFangSC-Regular, PingFang SC" font-size="20" font-weight="normal" letter-spacing="0.5">
                <text id="psd">
                    <tspan x="0" y="21">psd</tspan>
                </text>
            </g>
            <text id="?" style="font-size  : 90;" font-family="ArialRoundedMTBold, Arial Rounded MT Bold" font-weight="normal" letter-spacing="3.999999" fill="#2654B9">
                <tspan x="60" y="46">?</tspan>
            </text>
        </g>
    </g>
</svg>