<?xml version="1.0" encoding="UTF-8"?>
<svg viewBox="0 0 20 18" xmlns="http://www.w3.org/2000/svg" xmlns:xlink="http://www.w3.org/1999/xlink">
    <defs></defs>
    <g id="comment" stroke="none" stroke-width="1" fill="none" fill-rule="evenodd">
        <g id="status-comments" transform="translate(-1.000000, -1.000000)" fill-rule="nonzero">
            <rect id="Rectangle-path" fill="#404040" opacity="0" x="0" y="0" width="21" height="21"></rect>
            <path d="M18.4433854,15.4920667 L14.5445514,15.4920667 C13.2332054,16.7147703 11.2210983,18.9084457 11.2210983,18.9084457 C11.0992128,19.0305181 10.9007872,19.0305181 10.779309,18.9084457 C10.779309,18.9084457 8.03046493,16.1723407 7.36640891,15.4920667 L3.55704336,15.4920667 C2.14452272,15.4920667 1,14.2226452 1,12.845377 L1,3.49400122 C1,2.11675358 2.11952387,1 3.49999195,1 L18.500008,1 C19.8808621,1 21,2.11675358 21,3.49400122 L21,12.845377 C21.0000214,14.222439 19.8554987,15.4920667 18.4433854,15.4920667 Z M6.00000536,7.21239664 C5.30977131,7.21239664 4.74999867,7.77078373 4.74999867,8.45949003 C4.74999867,9.14801076 5.30974988,9.70639786 6.00000536,9.70639786 C6.69026085,9.70639786 7.25001206,9.14801076 7.25001206,8.45949003 C7.25001206,7.77078373 6.6902394,7.21239664 6.00000536,7.21239664 Z M11.0000107,7.21239664 C10.3097767,7.21239664 9.75000401,7.77078373 9.75000401,8.45949003 C9.75000401,9.14801076 10.3101626,9.70639786 11.0000107,9.70639786 C11.6902448,9.70639786 12.2500174,9.14801076 12.2500174,8.45949003 C12.2500174,7.77078373 11.6902448,7.21239664 11.0000107,7.21239664 Z M16.0000161,7.21239664 C15.3101679,7.21239664 14.7500094,7.77078373 14.7500094,8.45949003 C14.7500094,9.14801076 15.3101679,9.70639786 16.0000161,9.70639786 C16.6906575,9.70639786 17.2500228,9.14801076 17.2500228,8.45949003 C17.2500228,7.77078373 16.6906575,7.21239664 16.0000161,7.21239664 Z" id="Shape" fill="#108EE9"></path>
        </g>
    </g>
</svg>