<?xmlns encoding="UTF-8"?>
<svg viewBox="0 0 20 19" xmlns="http://www.w3.org/2000/svg" xmlns:xlink="http://www.w3.org/1999/xlink">
    <g id="good" stroke="none" stroke-width="1" fill="none" fill-rule="evenodd">
        <g id="status-good" transform="translate(-1.000000, -1.000000)" fill-rule="nonzero">
            <rect id="Rectangle-path" opacity="0" x="0" y="0" width="22" height="22"></rect>
            <path d="M2.01,12.2275 C1.13250001,11.351 0.499500005,10.3165 0.202,9.185 C-0.0904999907,8.11300001 -0.0739999907,6.96000001 0.309499992,5.79050001 C0.650999998,4.7725 1.25199999,3.83600001 2.01999999,3.0835 C2.77899999,2.347 3.72599998,1.7565 4.75999998,1.432 C5.95649997,1.047 7.14749999,1.047 8.24649998,1.3345 C9.24849997,1.59949999 10.1795,2.0975 11.0025,2.78000001 C11.8305,2.0975 12.751,1.59950001 13.7475,1.3345 C14.8625,1.047 16.053,1.05850001 17.2505,1.432 C18.284,1.76800001 19.227,2.347 20.006,3.09399999 C20.7585,3.841 21.3435,4.772 21.684,5.78999998 L21.69,5.78999998 C22.074,6.95949998 22.0905,8.11299998 21.7985,9.18449997 C21.5,10.316 20.867,11.3505 20.006,12.227 L19.952,12.265 L11.5875,20.6195 C11.263,20.9555 10.738,20.9555 10.402,20.6035 L2.01,12.2275 Z M6.668,2.1305 C7.11099999,2.1305 7.55649999,2.18849999 7.99099999,2.30199999 C8.8365,2.52549999 9.63499999,2.946 10.3645,3.55049999 L11.0005,4.07799999 L11.638,3.55249999 C12.3775,2.94349999 13.173,2.5225 13.997,2.30349999 C14.4325,2.19099998 14.8785,2.13449998 15.3225,2.13449998 C15.866,2.13449998 16.415,2.21949999 16.941,2.38399999 C17.8105,2.66649999 18.631,3.16199999 19.301,3.80449998 C19.951,4.44949998 20.447,5.24649997 20.7355,6.10849998 L20.794,6.27949998 C21.0545,7.17249998 21.068,8.06099998 20.831,8.93049998 C20.5945,9.82649998 20.0845,10.701 19.3535,11.464 L19.3055,11.4975 L19.2445,11.5585 L11.0025,19.7905 L2.71649999,11.52 C1.94799999,10.752 1.41299999,9.85649998 1.16649998,8.92199999 C0.915999992,8.004 0.947499975,7.05499998 1.25699999,6.10899998 C1.54449999,5.25349999 2.05049999,4.45399999 2.717,3.80149999 C3.39400001,3.14449998 4.204,2.65549999 5.06649999,2.38449999 C5.59050001,2.21599999 6.12950001,2.1305 6.668,2.1305 Z M6.6675,1.13049999 C6.0425,1.13049999 5.40199999,1.22599999 4.76049999,1.43249999 C3.72649999,1.75699999 2.779,2.34749999 2.0205,3.08399998 C1.2525,3.83649999 0.651500008,4.77299999 0.309499996,5.79099997 C-0.0740000078,6.96049997 -0.0905000078,8.11399997 0.202000004,9.18549996 C0.499999994,10.317 1.13249999,11.3515 2.01000001,12.228 L10.402,20.6039999 C10.572,20.7819999 10.79,20.8699999 11.0065,20.8699999 C11.218,20.8699999 11.427,20.786 11.5875,20.6199999 L19.952,12.2659999 L20.006,12.228 C20.867,11.3515 21.5,10.3169999 21.7985,9.18549996 C22.0905,8.11349997 22.074,6.96049997 21.69,5.79099997 L21.684,5.79099997 C21.343,4.77299997 20.758,3.84199997 20.006,3.09499998 C19.227,2.34749999 18.2845,1.76899998 17.2505,1.43299999 C16.6025,1.23099999 15.956,1.135 15.323,1.135 C14.7865,1.135 14.259,1.20399999 13.748,1.33550001 C12.7515,1.6005 11.831,2.09850001 11.003,2.78100002 C10.1795,2.09800001 9.24849999,1.59999999 8.2465,1.335 C7.73750001,1.20150001 7.20799999,1.13049999 6.6675,1.13049999 Z" id="Shape" fill="#FF4D4F"></path>
        </g>
    </g>
</svg>