<?xml version="1.0" encoding="UTF-8"?>
<svg viewBox="0 0 22 19" version="1.1" xmlns="http://www.w3.org/2000/svg" xmlns:xlink="http://www.w3.org/1999/xlink">
    <g id="bad" stroke="none" stroke-width="1" fill="none" fill-rule="evenodd">
        <g id="status-bad" transform="translate(-3.000000, -6.000000)" fill-rule="nonzero">
            <rect id="Rectangle-path" fill="#000000" opacity="0" x="0" y="0" width="29" height="29"></rect>
            <path d="M13.9997665,25 C13.4619842,25 12.9552642,24.7932808 12.5721808,24.4177133 L4.91442448,16.8929394 C3.68033651,15.6894877 3,14.0849248 3,12.3769727 C3,10.6680428 3.68129994,9.06297615 4.91784018,7.85659074 C6.14708194,6.65906556 7.77931739,6 9.51335228,6 C11.083025,6 12.446092,6.53896338 13.6705168,7.64640451 L13.6879748,7.64640451 L13.987651,7.94714893 L14.1869583,7.7325474 C15.4186231,6.56699612 16.8263277,6 18.4866769,6 C20.2207118,6 21.852451,6.65906556 23.0807293,7.85608699 C24.3366544,9.07429595 25,10.6375209 25,12.3769728 C25,14.0864065 24.3191964,15.6914731 23.0831524,16.8959027 L15.4283155,24.4172392 C15.0447358,24.7932808 14.5375196,25 13.9997665,25 Z M9.51335225,7.51204887 C8.16578729,7.51204887 6.89967355,8.02197199 5.9492343,8.9473189 C5.00802036,9.8652872 4.48965203,11.0834665 4.48965203,12.3770023 C4.48965203,13.6700048 5.00752407,14.8872358 5.9482709,15.8042263 L13.6074577,23.3305114 C13.8111149,23.5303558 14.1883888,23.5308299 14.3930094,23.3300077 L22.049306,15.8071303 C22.9919796,14.8881841 23.5103479,13.6709827 23.5103479,12.3769727 C23.5103479,11.0603232 23.0055548,9.87462158 22.051262,8.94829679 L22.0498023,8.9473189 C21.0998594,8.02197199 19.834709,7.51204887 18.4866769,7.51204887 C17.18953,7.51204887 16.1343719,7.94371147 15.1698904,8.87003626 L14.0177499,10.2816889 L13.0425834,9.15848303 L12.8420499,8.94364442 L12.6342764,8.73470277 C11.6959235,7.90186981 10.6970222,7.51204887 9.51335225,7.51204887 Z" id="Shape" fill="#FF4D4F"></path>
        </g>
    </g>
</svg>